<mxfile host="app.diagrams.net" modified="2024-04-29T09:03:56.209Z" agent="Mozilla/5.0 (Windows NT 10.0; Win64; x64) AppleWebKit/537.36 (KHTML, like Gecko) Chrome/124.0.0.0 Safari/537.36 Edg/124.0.0.0" etag="OZGrjIUEorfRmISCGQum" version="24.3.1" type="device">
  <diagram name="第 1 页" id="5Monek8e5k4XvB3nL9qJ">
    <mxGraphModel dx="1593" dy="884" grid="1" gridSize="10" guides="1" tooltips="1" connect="1" arrows="1" fold="1" page="1" pageScale="1" pageWidth="3300" pageHeight="4681" math="0" shadow="0">
      <root>
        <mxCell id="0" />
        <mxCell id="1" parent="0" />
        <mxCell id="79xMVAEYs1soao0TAyuM-23" value="" style="ellipse;whiteSpace=wrap;html=1;aspect=fixed;dashed=1;dashPattern=1 2;fillColor=#dae8fc;strokeColor=none;gradientColor=none;shadow=0;" vertex="1" parent="1">
          <mxGeometry x="189.81" y="289.55" width="600" height="600" as="geometry" />
        </mxCell>
        <mxCell id="79xMVAEYs1soao0TAyuM-24" value="" style="rounded=1;whiteSpace=wrap;html=1;rotation=90;" vertex="1" parent="1">
          <mxGeometry x="376.3189907139965" y="529.3967831682835" width="226.9902122815535" height="120.30160841585824" as="geometry" />
        </mxCell>
        <mxCell id="79xMVAEYs1soao0TAyuM-25" value="" style="endArrow=classic;html=1;rounded=0;dashed=1;opacity=20;" edge="1" parent="1">
          <mxGeometry width="50" height="50" relative="1" as="geometry">
            <mxPoint x="276.0649802896437" y="230.64778893556874" as="sourcePoint" />
            <mxPoint x="887.046968347492" y="689.798927722761" as="targetPoint" />
          </mxGeometry>
        </mxCell>
        <mxCell id="79xMVAEYs1soao0TAyuM-26" value="" style="group;rotation=35;" vertex="1" connectable="0" parent="1">
          <mxGeometry x="77.44854454328438" y="96.31099287119372" width="226.9902122815535" height="140.35187648516794" as="geometry" />
        </mxCell>
        <mxCell id="79xMVAEYs1soao0TAyuM-27" value="" style="rounded=0;whiteSpace=wrap;html=1;movable=1;resizable=1;rotatable=1;deletable=1;editable=1;locked=0;connectable=1;rotation=35;" vertex="1" parent="79xMVAEYs1soao0TAyuM-26">
          <mxGeometry x="1.8915851023462793" y="8.02010722772388" width="194.56303909847443" height="105.26390736387596" as="geometry" />
        </mxCell>
        <mxCell id="79xMVAEYs1soao0TAyuM-28" style="edgeStyle=orthogonalEdgeStyle;rounded=0;orthogonalLoop=1;jettySize=auto;html=1;exitX=0;exitY=0.5;exitDx=0;exitDy=0;" edge="1" parent="79xMVAEYs1soao0TAyuM-26" source="79xMVAEYs1soao0TAyuM-29">
          <mxGeometry relative="1" as="geometry">
            <mxPoint x="206.18277615574448" y="138.34684967823696" as="targetPoint" />
          </mxGeometry>
        </mxCell>
        <mxCell id="79xMVAEYs1soao0TAyuM-29" value="" style="triangle;whiteSpace=wrap;html=1;rotation=-145;movable=1;resizable=1;rotatable=1;deletable=1;editable=1;locked=0;connectable=1;" vertex="1" parent="79xMVAEYs1soao0TAyuM-26">
          <mxGeometry x="117.27827634546934" y="40.10053613861941" width="97.28151954923722" height="140.35187648516794" as="geometry" />
        </mxCell>
        <mxCell id="79xMVAEYs1soao0TAyuM-30" value="&lt;div style=&quot;background-color: rgb(255, 255, 255); font-family: Consolas, &amp;quot;Courier New&amp;quot;, monospace; font-size: 14px; line-height: 19px; white-space-collapse: preserve;&quot;&gt;ViewStart&lt;/div&gt;" style="text;html=1;align=center;verticalAlign=middle;resizable=0;points=[];autosize=1;strokeColor=none;fillColor=none;" vertex="1" parent="79xMVAEYs1soao0TAyuM-26">
          <mxGeometry x="68.49755307038842" y="45.65010722772388" width="90" height="30" as="geometry" />
        </mxCell>
        <mxCell id="79xMVAEYs1soao0TAyuM-31" value="&lt;div style=&quot;font-family: Consolas, &amp;quot;Courier New&amp;quot;, monospace; font-size: 14px; line-height: 19px; white-space-collapse: preserve;&quot;&gt;ViewDir&lt;/div&gt;" style="text;html=1;align=center;verticalAlign=middle;resizable=0;points=[];autosize=1;strokeColor=none;fillColor=none;" vertex="1" parent="1">
          <mxGeometry x="850.0031918122977" y="699.9991957920709" width="80" height="30" as="geometry" />
        </mxCell>
        <mxCell id="79xMVAEYs1soao0TAyuM-32" value="&lt;div style=&quot;font-family: Consolas, &amp;quot;Courier New&amp;quot;, monospace; font-size: 14px; line-height: 19px; white-space-collapse: preserve;&quot;&gt;TraceStart&lt;/div&gt;" style="text;html=1;align=center;verticalAlign=middle;resizable=0;points=[];autosize=1;strokeColor=none;fillColor=none;" vertex="1" parent="1">
          <mxGeometry x="440.0048417374593" y="599.9975873762127" width="100" height="30" as="geometry" />
        </mxCell>
        <mxCell id="79xMVAEYs1soao0TAyuM-33" value="&lt;div style=&quot;font-family: Consolas, &amp;quot;Courier New&amp;quot;, monospace; font-size: 14px; line-height: 19px; white-space: pre;&quot;&gt;ViewEnd&lt;/div&gt;" style="text;html=1;align=center;verticalAlign=middle;whiteSpace=wrap;rounded=0;fontColor=#7D7D7D;" vertex="1" parent="1">
          <mxGeometry x="793" y="591" width="60" height="30" as="geometry" />
        </mxCell>
        <mxCell id="79xMVAEYs1soao0TAyuM-34" value="" style="ellipse;whiteSpace=wrap;html=1;aspect=fixed;fillColor=#000000;" vertex="1" parent="1">
          <mxGeometry x="783" y="611" width="10" height="10" as="geometry" />
        </mxCell>
        <mxCell id="79xMVAEYs1soao0TAyuM-35" value="" style="rounded=1;whiteSpace=wrap;html=1;rotation=90;" vertex="1" parent="1">
          <mxGeometry x="680" y="525.35" width="53.5" height="55.65" as="geometry" />
        </mxCell>
        <mxCell id="79xMVAEYs1soao0TAyuM-36" value="" style="ellipse;whiteSpace=wrap;html=1;aspect=fixed;fillColor=#000000;" vertex="1" parent="1">
          <mxGeometry x="701.75" y="548.18" width="10" height="10" as="geometry" />
        </mxCell>
        <mxCell id="79xMVAEYs1soao0TAyuM-38" value="" style="endArrow=classic;html=1;rounded=0;exitX=0.502;exitY=0.498;exitDx=0;exitDy=0;exitPerimeter=0;opacity=20;" edge="1" parent="1" source="79xMVAEYs1soao0TAyuM-24">
          <mxGeometry width="50" height="50" relative="1" as="geometry">
            <mxPoint x="580.2447000716049" y="520.0015678007758" as="sourcePoint" />
            <mxPoint x="890" y="520" as="targetPoint" />
          </mxGeometry>
        </mxCell>
        <mxCell id="79xMVAEYs1soao0TAyuM-39" value="&lt;div style=&quot;background-color: rgb(255, 255, 255); font-family: Consolas, &amp;quot;Courier New&amp;quot;, monospace; font-size: 14px; line-height: 19px; white-space: pre;&quot;&gt;AdjustedAimDir&lt;/div&gt;" style="text;html=1;align=center;verticalAlign=middle;whiteSpace=wrap;rounded=0;" vertex="1" parent="1">
          <mxGeometry x="920" y="495.35" width="60" height="30" as="geometry" />
        </mxCell>
        <mxCell id="79xMVAEYs1soao0TAyuM-46" value="" style="endArrow=classic;html=1;rounded=0;" edge="1" parent="1">
          <mxGeometry width="50" height="50" relative="1" as="geometry">
            <mxPoint x="490" y="590" as="sourcePoint" />
            <mxPoint x="940" y="630" as="targetPoint" />
          </mxGeometry>
        </mxCell>
        <mxCell id="79xMVAEYs1soao0TAyuM-47" value="&lt;div style=&quot;font-family: Consolas, &amp;quot;Courier New&amp;quot;, monospace; font-size: 14px; line-height: 19px; white-space: pre;&quot;&gt;OriginalAimDir&lt;/div&gt;" style="text;html=1;align=center;verticalAlign=middle;whiteSpace=wrap;rounded=0;" vertex="1" parent="1">
          <mxGeometry x="970" y="619.7" width="60" height="30" as="geometry" />
        </mxCell>
        <mxCell id="79xMVAEYs1soao0TAyuM-48" value="&lt;div style=&quot;font-family: Consolas, &amp;quot;Courier New&amp;quot;, monospace; line-height: 19px; white-space: pre;&quot;&gt;&lt;div style=&quot;line-height: 19px;&quot;&gt;&lt;font style=&quot;font-size: 14px;&quot;&gt;AdjustedEnd&lt;/font&gt;&lt;/div&gt;&lt;/div&gt;" style="text;html=1;align=center;verticalAlign=middle;whiteSpace=wrap;rounded=0;fontSize=12;fontColor=#7D7D7D;" vertex="1" parent="1">
          <mxGeometry x="701.75" y="499.39999999999986" width="60" height="30" as="geometry" />
        </mxCell>
      </root>
    </mxGraphModel>
  </diagram>
</mxfile>
